<?xml version="1.0" encoding="utf-8"?>
<!-- Generator: Adobe Illustrator 16.0.0, SVG Export Plug-In . SVG Version: 6.00 Build 0)  -->
<!DOCTYPE svg PUBLIC "-//W3C//DTD SVG 1.1//EN" "http://www.w3.org/Graphics/SVG/1.1/DTD/svg11.dtd">
<svg version="1.1" id="Calque_1" xmlns="http://www.w3.org/2000/svg" xmlns:xlink="http://www.w3.org/1999/xlink" x="0px" y="0px"
	 width="2165.979px" height="1700.79px" viewBox="0 0 2165.979 1700.79" enable-background="new 0 0 2165.979 1700.79"
	 xml:space="preserve">
<circle fill="none" stroke="#3DB54A" stroke-miterlimit="10" cx="838.54" cy="303.735" r="7.166"/>
<path fill="none" stroke="#2356A7" stroke-miterlimit="10" d="M2086.556,1316.89c-6.108,0.144-18.534,2.17-38.298,3.392
	c-19.768,1.223-46.873,1.643-70.687-0.112c-23.819-1.756-44.346-5.682-64.281-15.354c-19.937-9.667-39.283-25.083-40.103-36.108
	c-0.822-11.026,16.886-17.669,33.434-27.424c16.55-9.754,31.94-22.626,47.485-30.353c15.543-7.726,31.242-10.312,54.308-5.625
	c23.065,4.688,53.505,16.647,68.638,21.341c15.132,4.692,14.961,2.124,14.521-3.268c-0.44-5.395-1.152-13.615-2.032-19.132
	c-0.878-5.513-1.92-8.32-9.266-11.953c-7.342-3.628-20.986-8.082-33.906-12.784c-12.921-4.705-25.115-9.657-40.148-12.011
	c-15.038-2.35-32.914-2.097-56.222,9.119c-23.303,11.215-52.037,33.396-80.972,42.919c-28.937,9.525-58.074,6.389-86.844-4.906
	c-28.771-11.295-57.175-30.753-75.525-43.678c-18.352-12.927-26.646-19.317-31.7-28.586c-5.054-9.27-6.87-21.411-8.679-33.56
	l-0.004-22.729c0.885-17.368,1.773-34.739,13.838-33.435c12.064,1.3,35.313,21.277,53.474,31.003
	c26.394,14.135,68.544,36.408,95.114,48.645c15.312,7.05,34.369,13.32,53.313,20.111c18.946,6.788,37.793,14.1,47.412,15.244
	c9.619,1.141,10.017-3.888,10.101-9.37c0.086-5.484-0.136-11.42-0.231-16.219c-0.092-4.798-0.058-8.459-13.162-12.491
	c-13.104-4.031-39.344-8.432-58.958-14.179c-19.612-5.744-32.591-12.837-25.638-22.388c6.96-9.556,33.858-21.569,51.786-26.27
	c17.932-4.703,26.899-2.093,39.973,3.396c13.074,5.483,30.26,13.844,45.385,20.632c15.129,6.795,28.203,12.016,43.447,18.78
	s32.658,15.067,40.252,16.139c7.592,1.074,5.368-5.085,3.134-10.839c-2.233-5.748-4.478-11.098-6.042-14.828
	c-1.566-3.729-2.453-5.851-25.364-14.436c-22.909-8.585-67.84-23.639-83.204-37.959c-15.369-14.315-1.174-27.902,9.908-38.049
	c11.085-10.147,19.053-16.863,22.392-20.904c3.337-4.038,2.046-5.404-0.433-8.023c-2.474-2.615-6.139-6.489-8.941-10.125
	c-2.801-3.631-4.742-7.027-12.973,0.78c-8.229,7.805-22.752,26.808-41.408,42.575c-18.652,15.772-41.441,28.309-62.731,35.361
	c-21.296,7.051-41.092,8.617-48.347,4.998c-7.257-3.618-1.971-12.421,7.15-23.394c9.125-10.977,22.084-24.124,27.383-31.829
	c5.299-7.701,2.937-9.97,0.228-13.08c-2.703-3.111-5.751-7.066-8.263-10.374c-2.507-3.308-4.471-5.968-8.229-3.126
	c-3.757,2.838-9.303,11.179-16.426,22.141c-7.125,10.958-15.83,24.538-25.447,37.645c-9.612,13.109-17.75,17.58-31.038,16.899
	c-12.938-0.662-66.493-34.65-77.133-48.269c-7.873-10.082-9.06-22.704-10.317-37.591v-8.819c0.554-8.228,1.114-16.453,7.367-21.092
	c6.257-4.634,18.211-5.68,38.85-4.506c20.639,1.173,49.962,4.565,86.013,14.751c36.045,10.188,78.817,27.169,100.597,34.156
	c21.775,6.988,22.556,3.982,24.406-1.612c1.844-5.596,4.758-13.779,7.121-20.369c2.364-6.592,4.176-11.594-5.041-16.038
	c-9.217-4.448-29.465-8.334-47.317-12.518c-17.857-4.183-33.32-8.659-42.575-11.353c-9.256-2.691-8.683-2.183-8.063-8.768
	c0.62-6.584,5.589-23.432,6.25-28.161c0.659-4.732-4.646-4.983-8.384-6.055c-3.733-1.074-11.029-3.617-13.775-4.481
	c-2.75-0.868-4.569-1.473-6.713,4.881c-2.14,6.354-4.604,19.664-6.548,26.317c-1.94,6.656-3.366,6.656-8.689,5.61
	c-5.322-1.041-14.545-3.133-30.177-6.135c-15.629-3.005-37.672-6.922-52.771-10.102c-15.096-3.175-23.25-5.615-28.852-15.276
	c-5.602-9.664-12.429-30.852-11.697-72.26c11.916-223.973,23.834-447.943,45.317-568.817
	c21.481-120.875,52.527-138.654,98.36-148.553c45.833-9.9,106.455-11.92,137.92-19.799c31.464-7.879,33.771-21.618,36.078-35.355
	h-111.793V3.583h-104.043v25.314h-300.942V2.863h-104.042v26.035h-114c2.306,13.738,4.614,27.476,36.079,35.355
	c31.466,7.879,92.087,9.899,137.92,19.799c45.832,9.899,76.878,27.678,98.358,148.553c21.481,120.875,33.402,344.844,45.318,568.817
	c0.729,41.408-6.096,62.596-11.697,72.26c-5.6,9.661-13.755,12.102-28.854,15.276c-15.099,3.18-37.139,7.097-52.771,10.102
	c-15.63,3.002-24.856,5.094-30.179,6.135c-5.322,1.046-6.746,1.046-8.689-5.61c-1.942-6.653-4.405-19.963-6.548-26.317
	c-2.141-6.354-3.963-5.749-6.71-4.881c-2.749,0.864-10.043,3.407-13.777,4.481c-3.734,1.071-9.044,1.322-8.382,6.055
	c0.663,4.729,5.631,21.577,6.247,28.161c0.62,6.585,1.193,6.076-8.06,8.768c-9.256,2.693-24.72,7.17-42.576,11.353
	c-17.856,4.184-38.1,8.069-47.319,12.518c-9.218,4.444-7.403,9.446-5.04,16.038c2.361,6.59,5.275,14.773,7.124,20.369
	c1.846,5.595,2.628,8.601,24.404,1.612c21.775-6.987,64.548-23.969,100.599-34.156c36.046-10.186,65.372-13.578,86.012-14.751
	c20.64-1.174,32.592-0.128,38.846,4.506c6.257,4.639,6.814,12.864,7.37,21.092v8.819c-1.255,14.887-2.448,27.509-10.319,37.591
	c-10.637,13.618-64.191,47.606-77.132,48.269c-13.286,0.681-21.424-3.79-31.041-16.899c-9.613-13.106-18.318-26.687-25.444-37.645
	c-7.124-10.962-12.67-19.303-16.427-22.141c-3.756-2.842-5.722-0.182-8.23,3.126c-2.506,3.308-5.555,7.263-8.262,10.374
	c-2.704,3.11-5.067,5.379,0.229,13.08c5.301,7.705,18.259,20.853,27.381,31.829c9.125,10.973,14.411,19.775,7.156,23.394
	c-7.258,3.619-27.057,2.053-48.348-4.998c-21.291-7.053-44.081-19.589-62.736-35.361c-18.652-15.768-33.176-34.771-41.406-42.575
	c-8.231-7.808-10.172-4.411-12.972-0.78c-2.802,3.636-6.467,7.51-8.943,10.125c-2.478,2.619-3.77,3.985-0.43,8.023
	c3.34,4.041,11.308,10.757,22.39,20.904c11.08,10.146,25.275,23.733,9.91,38.049c-15.368,14.32-60.297,29.374-83.206,37.959
	c-22.907,8.585-23.796,10.706-25.363,14.436c-1.566,3.73-3.808,9.08-6.044,14.828c-2.232,5.754-4.455,11.913,3.138,10.839
	c7.594-1.071,25.006-9.374,40.248-16.139c15.245-6.765,28.318-11.985,43.447-18.78c15.129-6.788,32.313-15.148,45.387-20.632
	c13.074-5.488,22.042-8.099,39.97-3.396c17.932,4.7,44.828,16.714,51.787,26.27c6.957,9.551-6.024,16.644-25.639,22.388
	c-19.608,5.747-45.852,10.147-58.956,14.179c-13.103,4.032-13.067,7.693-13.162,12.491c-0.092,4.799-0.317,10.734-0.23,16.219
	c0.087,5.482,0.481,10.511,10.102,9.37c9.619-1.145,28.462-8.456,47.409-15.244c18.948-6.791,38.001-13.062,53.317-20.111
	c26.57-12.236,68.717-34.51,95.111-48.645c18.164-9.726,41.408-29.703,53.472-31.003c12.069-1.305,12.954,16.066,13.838,33.435
	v22.729c-1.812,12.148-3.623,24.29-8.678,33.56c-5.055,9.269-13.35,15.659-31.7,28.586c-18.352,12.925-46.754,32.383-75.526,43.678
	s-57.909,14.432-86.844,4.906c-28.934-9.522-57.67-31.704-80.976-42.919c-23.304-11.216-41.182-11.469-56.216-9.119
	c-15.036,2.354-27.23,7.306-40.15,12.011c-12.92,4.702-26.565,9.156-33.908,12.784c-7.344,3.633-8.388,6.44-9.265,11.953
	c-0.878,5.517-1.593,13.737-2.031,19.132c-0.442,5.392-0.611,7.96,14.521,3.268c15.134-4.693,45.57-16.653,68.637-21.341
	c23.067-4.687,38.764-2.101,54.31,5.625c15.542,7.727,30.933,20.599,47.481,30.353c16.552,9.755,34.257,16.397,33.437,27.424
	c-0.819,11.025-20.166,26.441-40.104,36.108c-19.937,9.673-40.463,13.599-64.278,15.354c-23.816,1.755-50.923,1.335-70.687,0.112
	c-19.766-1.222-32.191-3.248-38.299-3.392c-6.109-0.145-5.903,1.597-5.502,4.951c0.399,3.357,0.988,8.333,1.56,12.544
	c0.573,4.212,1.123,7.662,1.515,10.105c0.39,2.444,0.618,3.881,9.573,5.24c8.958,1.357,26.639,2.64,39.196,3.183
	c12.56,0.541,19.991,0.341,25.781,0.526c5.79,0.188,9.938,0.764,7.696,19.725c-2.242,18.965-10.875,56.319-14.241,75.156
	c-3.367,18.838-1.472,19.163,2.111,19.218c3.584,0.056,17.412-0.665,21.1-0.927c3.691-0.26,5.798-0.567,9.606-19.134
	c3.809-18.568,9.318-55.398,13.438-73.906c4.12-18.511,6.853-18.706,18.236-20.774c11.383-2.07,22.86-5.515,39.71-10.209
	c16.851-4.692,30.518-10.134,43.047-19.518c12.531-9.38,23.923-22.703,39.895-33.543c15.97-10.838,36.517-19.196,39.135-7.442
	c2.615,11.753-12.701,43.62-28.298,64.886c-15.594,21.265-31.475,31.934-37.321,38.806c-5.848,6.876-1.662,9.964,1.307,12.153
	c2.97,2.186,4.723,3.481,7.617,5.621s6.929,5.129,10.16,5.493c3.232,0.363,5.66-1.901,9.735-5.693
	c4.072-3.792,9.788-9.115,20.12-22.746c10.327-13.632,25.27-35.571,35.731-56.728c10.46-21.156,16.437-41.529,25.215-57.202
	c8.78-15.671,20.36-26.642,34.225-38.847c13.867-12.208,30.019-25.65,38.725-22.317c8.701,3.334,9.953,23.445,11.204,43.557v37.219
	c-0.956,26.641-1.916,53.284-22.011,81.497c-20.096,28.214-59.331,57.999-89.374,75.698c-30.043,17.696-50.901,23.308-70.328,28.528
	c-19.426,5.224-37.416,10.064-59.861,11.959c-22.444,1.898-49.341,0.853-71.148,2.238c-21.809,1.384-38.528,5.195-45.545,9.283
	c-7.017,4.083-4.328,8.438-0.734,13.916c3.595,5.476,8.096,12.079,11.082,16.374c2.984,4.3,4.456,6.297,9.596,4.657
	c5.14-1.637,13.947-6.909,28.81-9.023c14.863-2.116,35.783-1.071,56.335-1.727c20.55-0.659,40.732-3.019,45.157,7.574
	c4.425,10.594-6.909,34.143-15.44,53.247c-8.528,19.108-14.257,33.775-15.941,41.843c-1.687,8.064,0.668,9.526,4.346,11.844
	c3.682,2.317,8.687,5.49,11.914,7.232c3.231,1.744,4.688,2.057,8.783-5.131c4.102-7.186,10.843-21.867,17.201-38.088
	c6.359-16.221,12.337-33.986,20.18-49.655c7.848-15.674,17.559-29.256,28.128-38.196c10.569-8.942,22-13.245,27.843-13.223
	c5.846,0.023,6.105,4.373,8.391,18.525c2.284,14.148,6.596,38.106,10.399,49.307c3.806,11.199,7.109,9.646,9.282,8.63
	c2.174-1.014,3.219-1.491,4.821-2.347c1.604-0.855,3.764-2.09,6.866-3.863c3.104-1.773,7.146-4.082,4.613-18.29
	c-2.531-14.211-11.643-40.322-13.18-55.021c-1.541-14.695,4.492-17.98,20.725-32.066c16.232-14.088,42.663-38.978,55.878-38.984
	c13.214-0.004,13.214,24.877,13.214,49.754v6.268c-1.376,20.242-2.753,40.482-12.906,57.117
	c-10.153,16.63-29.085,29.654-44.292,40.579c-15.212,10.928-26.705,19.754-42.166,17.574c-15.46-2.179-34.887-15.372-45.531-19.813
	c-10.646-4.439-12.515-0.131-14.854,4.698c-2.338,4.827-5.149,10.176-7.486,14.617c-2.334,4.438-4.191,7.976,4.663,13.685
	c8.86,5.71,28.432,13.597,42.347,18.822c13.917,5.221,22.174,7.784,21.563,17.521c-0.613,9.742-10.095,26.663-13.55,35.404
	c-3.454,8.738-0.885,9.298,3.468,10.245s10.486,2.282,15.257,3.373c4.772,1.089,8.182,1.93,11.37-1.862
	c3.19-3.791,6.163-12.218,11.341-25.79c5.183-13.573,12.569-32.291,24.731-48.538c12.167-16.25,31.53-31.186,45.866-38.055
	c14.333-6.87,30.864-6.352,42.658-8.318h0.004V828.344h14.506v741.963c11.792,1.967,28.324,1.448,42.66,8.318
	c14.333,6.869,33.699,21.805,45.862,38.055c12.166,16.247,19.555,34.965,24.733,48.538c5.182,13.572,8.15,21.999,11.34,25.79
	c3.192,3.792,6.602,2.951,11.373,1.862c4.769-1.091,10.904-2.426,15.258-3.373c4.353-0.947,6.922-1.507,3.467-10.245
	c-3.457-8.741-12.936-25.662-13.55-35.404c-0.608-9.737,7.647-12.301,21.563-17.521c13.913-5.226,33.486-13.112,42.343-18.822
	c8.856-5.709,7-9.247,4.663-13.685c-2.333-4.441-5.145-9.79-7.485-14.617c-2.341-4.829-4.205-9.138-14.854-4.698
	c-10.646,4.441-30.068,17.635-45.529,19.813c-15.46,2.18-26.955-6.646-42.165-17.574c-15.212-10.925-34.14-23.949-44.293-40.579
	c-10.153-16.635-11.531-36.875-12.906-57.117l-0.004-6.268c0-24.877,0.004-49.758,13.215-49.754
	c13.219,0.007,39.648,24.896,55.88,38.984c16.23,14.086,22.265,17.371,20.727,32.066c-1.541,14.698-10.648,40.81-13.183,55.021
	c-2.533,14.208,1.51,16.517,4.615,18.29c3.1,1.773,5.264,3.008,6.866,3.863s2.648,1.333,4.822,2.347
	c2.174,1.017,5.474,2.569,9.277-8.63c3.81-11.2,8.119-35.158,10.403-49.307c2.285-14.152,2.547-18.502,8.392-18.525
	c5.843-0.022,17.269,4.28,27.839,13.223c10.57,8.94,20.284,22.522,28.128,38.196c7.847,15.669,13.822,33.435,20.183,49.655
	c6.359,16.221,13.102,30.902,17.197,38.088c4.101,7.188,5.557,6.875,8.786,5.131c3.23-1.742,8.235-4.915,11.911-7.232
	c3.682-2.317,6.035-3.779,4.35-11.844c-1.687-8.067-7.413-22.734-15.944-41.843c-8.528-19.104-19.863-42.653-15.438-53.247
	c4.421-10.593,24.607-8.233,45.153-7.574c20.555,0.655,41.473-0.39,56.337,1.727c14.864,2.114,23.673,7.387,28.812,9.023
	c5.139,1.64,6.608-0.357,9.594-4.657c2.985-4.295,7.488-10.898,11.082-16.374c3.595-5.478,6.282-9.833-0.734-13.916
	c-7.014-4.088-23.736-7.899-45.546-9.283c-21.808-1.386-48.703-0.34-71.148-2.238c-22.44-1.895-40.435-6.735-59.857-11.959
	c-19.426-5.221-40.284-10.832-70.331-28.528c-30.044-17.699-69.276-47.484-89.372-75.698
	c-20.094-28.213-21.054-54.856-22.011-81.497l-0.004-37.219c1.252-20.111,2.508-40.223,11.21-43.557
	c8.701-3.333,24.855,10.109,38.721,22.317c13.866,12.205,25.449,23.176,34.228,38.847c8.776,15.673,14.755,36.046,25.213,57.202
	c10.46,21.156,25.401,43.096,35.732,56.728c10.329,13.631,16.047,18.954,20.121,22.746c4.071,3.792,6.503,6.057,9.733,5.693
	c3.233-0.364,7.267-3.354,10.162-5.493c2.894-2.14,4.646-3.436,7.616-5.621c2.969-2.189,7.151-5.277,1.305-12.153
	c-5.844-6.872-21.724-17.541-37.321-38.806c-15.596-21.266-30.911-53.133-28.295-64.886c2.615-11.754,23.162-3.396,39.133,7.442
	c15.973,10.84,27.364,24.163,39.895,33.543c12.53,9.384,26.194,14.825,43.048,19.518c16.85,4.694,28.328,8.139,39.711,10.209
	c11.384,2.068,14.112,2.264,18.232,20.774c4.12,18.508,9.633,55.338,13.441,73.906c3.806,18.566,5.916,18.874,9.604,19.134
	c3.691,0.262,17.519,0.982,21.101,0.927c3.583-0.055,5.481-0.38,2.114-19.218c-3.369-18.837-11.999-56.191-14.241-75.156
	c-2.241-18.961,1.905-19.537,7.696-19.725c5.788-0.186,13.221,0.015,25.778-0.526c12.558-0.543,30.241-1.825,39.196-3.183
	c8.957-1.359,9.187-2.796,9.576-5.24c0.391-2.443,0.941-5.894,1.512-10.105c0.569-4.211,1.163-9.187,1.563-12.544
	C2092.455,1318.486,2092.666,1316.745,2086.556,1316.89z"/>
<path fill="none" stroke="#3DB54A" stroke-miterlimit="10" d="M664.899,1678.099h79.321v23.25h104.532v-23.25h113.362
	c-2.316-13.795-4.636-27.593-36.231-35.503c-31.598-7.914-92.475-9.943-138.502-19.886c-46.028-9.939-77.203-27.796-98.778-149.177
	c-21.571-121.388-33.54-346.305-45.509-571.223l-1.035-9.391c-0.731-41.58,7.16-53.468,12.782-63.173
	c5.625-9.705,13.816-12.154,28.976-15.343c15.164-3.191,37.295-7.126,52.995-10.141c15.695-3.016,24.959-5.118,30.305-6.165
	c5.346-1.05,6.774-1.05,8.725,5.635c1.952,6.682,4.426,20.05,6.576,26.43c2.153,6.379,3.979,5.773,6.741,4.904
	c2.758-0.872,10.085-3.426,13.834-4.502c3.752-1.077,9.079-1.331,8.417-6.081c-0.664-4.751-5.653-21.669-6.276-28.281
	c-0.62-6.613-1.194-6.103,8.098-8.804c9.294-2.703,24.825-7.201,42.755-11.401c17.931-4.201,38.264-8.106,47.52-12.57
	c9.255-4.464,7.436-9.487,5.061-16.106c-2.372-6.619-5.297-14.837-7.151-20.455c-1.857-5.616-2.641-8.635-24.509-1.618
	c-21.87,7.015-64.823,24.068-101.021,34.298c-36.201,10.229-65.648,13.637-86.375,14.814c-20.728,1.179-32.731,0.129-39.014-4.526
	c-6.283-4.656-6.844-12.919-7.401-21.18l-0.001-5.905l0.001-2.952c1.262-14.95,2.457-27.622,10.363-37.747
	c10.685-13.678,64.466-47.806,77.46-48.474c13.34-0.685,21.515,3.805,31.17,16.97c9.656,13.166,18.398,26.799,25.552,37.804
	c7.153,11.007,12.724,19.384,16.495,22.234c3.771,2.854,5.747,0.184,8.265-3.14c2.52-3.321,5.582-7.294,8.299-10.417
	c2.718-3.124,5.09-5.398-0.231-13.137c-5.319-7.738-18.335-20.94-27.497-31.958c-9.16-11.022-14.468-19.864-7.183-23.498
	s27.169-2.06,48.554,5.021c21.379,7.081,44.266,19.674,62.996,35.509c18.734,15.834,33.318,34.921,41.583,42.758
	c8.266,7.837,10.213,4.429,13.028,0.781c2.813-3.647,6.49-7.538,8.978-10.167s3.787-4,0.433-8.058
	c-3.352-4.056-11.356-10.8-22.484-20.993c-11.128-10.189-25.384-23.829-9.95-38.209c15.431-14.378,60.55-29.498,83.557-38.118
	c23.002-8.623,23.898-10.751,25.469-14.498c1.572-3.746,3.828-9.116,6.07-14.891c2.242-5.776,4.475-11.963-3.148-10.885
	c-7.625,1.076-25.113,9.415-40.422,16.207c-15.308,6.793-28.437,12.04-43.63,18.859c-15.188,6.818-32.451,15.213-45.576,20.721
	c-13.13,5.508-22.136,8.131-40.142,3.41c-18.006-4.722-45.017-16.788-52.004-26.38c-6.985-9.593,6.048-16.716,25.744-22.485
	c19.695-5.77,46.048-10.19,59.207-14.239c13.158-4.048,13.124-7.725,13.218-12.543c0.096-4.818,0.318-10.779,0.232-16.286
	c-0.089-5.505-0.482-10.556-10.144-9.409c-9.659,1.147-28.586,8.49-47.612,15.31c-19.027,6.816-38.159,13.113-53.54,20.196
	c-26.682,12.283-69.01,34.652-95.514,48.848c-18.238,9.766-41.584,29.826-53.699,31.135c-12.117,1.308-12.373-5.72-13.263-23.163
	l-0.634-10.414c0-7.61,0-0.002,0-7.61l0.001-15.215c1.819-12.195,3.641-24.393,8.716-33.701
	c5.077-9.309,13.407-15.727,31.835-28.706c18.428-12.98,46.954-32.519,75.845-43.863c28.892-11.342,58.152-14.49,87.212-4.927
	c29.056,9.561,57.914,31.838,81.313,43.101c23.404,11.263,41.356,11.517,56.459,9.157c15.098-2.361,27.344-7.336,40.314-12.06
	c12.975-4.723,26.677-9.195,34.053-12.84c7.376-3.646,8.422-6.467,9.306-12.003c0.882-5.538,1.596-13.791,2.04-19.208
	c0.441-5.417,0.613-7.998-14.583-3.285c-15.201,4.714-45.765,16.723-68.929,21.431c-23.162,4.707-38.928,2.112-54.536-5.648
	c-15.61-7.761-31.065-20.683-47.686-30.481c-16.617-9.797-34.402-16.467-33.574-27.54c0.822-11.072,20.249-26.551,40.27-36.261
	c20.021-9.713,40.636-13.656,64.555-15.418c23.914-1.763,51.135-1.34,70.985-0.112c19.848,1.228,32.323,3.264,38.458,3.405
	c6.135,0.145,5.925-1.603,5.523-4.973c-0.398-3.37-0.993-8.363-1.565-12.593c-0.573-4.231-1.126-7.695-1.517-10.149
	c-0.392-2.457-0.628-3.896-9.618-5.261c-8.993-1.365-26.749-2.653-39.363-3.195c-12.608-0.547-20.073-0.345-25.888-0.533
	c-5.814-0.189-9.978-0.766-7.727-19.808c2.251-19.044,10.917-56.555,14.3-75.473c3.382-18.917,1.476-19.242-2.121-19.297
	c-3.598-0.055-17.484,0.667-21.189,0.929c-3.703,0.262-5.822,0.57-9.647,19.216c-3.825,18.644-9.358,55.631-13.495,74.219
	c-4.138,18.588-6.878,18.782-18.31,20.863c-11.433,2.076-22.959,5.536-39.88,10.249c-13.987,3.898-25.773,8.344-36.555,15.079
	c10.867-16.727,16.501-36.209,16.501-54.562c0-1.494-0.032-2.981-0.097-4.459c6.736-4.861,12.58-10.934,17.205-17.85
	c-6.185,2.743-12.83,4.597-19.804,5.43c7.12-4.268,12.587-11.025,15.159-19.077c-6.661,3.952-14.042,6.821-21.896,8.367
	c-6.29-6.701-15.253-10.889-25.17-10.889c-19.044,0-34.48,15.438-34.48,34.482c0,2.702,0.303,5.332,0.891,7.857
	c-28.656-1.438-54.067-15.167-71.072-36.028c-2.97,5.093-4.668,11.016-4.668,17.336c0,11.964,6.086,22.517,15.337,28.701
	c-5.648-0.18-10.965-1.731-15.616-4.314c-0.004,0.143-0.004,0.288-0.004,0.433c0,16.707,11.888,30.644,27.662,33.813
	c-2.894,0.787-5.938,1.211-9.084,1.211c-2.225,0-4.382-0.217-6.489-0.619c4.39,13.697,17.122,23.668,32.21,23.945
	c-11.799,9.249-26.665,14.762-42.823,14.762c-2.782,0-5.527-0.165-8.226-0.483c10.088,6.469,46.844,20.009,67.012,8.049
	c-30.466,28.169-55.074,16.016-64.825,31.904c-9.436,15.374-18.656,19.9-32.584,32.161c-13.922,12.257-30.146,25.758-38.884,22.411
	c-8.738-3.35-9.999-23.546-11.256-43.743l-0.189-8.959l-0.043-28.966c0.962-26.754,1.924-53.506,22.105-81.839
	c20.181-28.336,59.578-58.245,89.751-76.017c30.172-17.773,51.119-23.406,70.626-28.651c19.507-5.247,37.571-10.106,60.11-12.01
	c22.54-1.906,49.549-0.857,71.45-2.246c21.902-1.391,38.694-5.22,45.738-9.321c7.045-4.103,4.347-8.476,0.735-13.977
	c-3.606-5.502-8.13-12.129-11.127-16.446c-2.998-4.315-4.474-6.32-9.635-4.674c-5.161,1.645-14.008,6.938-28.935,9.062
	c-14.925,2.123-35.932,1.073-56.572,1.734c-20.637,0.659-40.904,3.032-45.345-7.606c-4.443-10.64,6.938-34.287,15.502-53.476
	c8.568-19.188,14.318-33.918,16.01-42.016c1.694-8.099-0.668-9.569-4.364-11.896c-3.694-2.329-8.718-5.515-11.964-7.263
	c-3.241-1.75-4.704-2.064-8.823,5.152c-4.114,7.215-10.882,21.961-17.27,38.251c-6.387,16.29-12.389,34.128-20.267,49.866
	c-7.878,15.736-17.633,29.376-28.248,38.356c-10.613,8.979-22.088,13.301-27.956,13.278c-5.868-0.023-6.132-4.39-8.429-18.601
	c-2.292-14.213-6.622-38.27-10.443-49.516c-3.823-11.248-7.138-9.688-9.321-8.668c-2.181,1.019-3.23,1.496-4.838,2.356
	c-1.61,0.859-3.783,2.102-6.898,3.881s-7.178,4.097-4.633,18.367c2.544,14.27,11.691,40.493,13.238,55.251
	c1.544,14.76-4.516,18.057-20.814,32.203c-16.3,14.145-42.843,39.14-56.115,39.147c-13.27,0.005-13.271-24.979-13.271-49.963
	l0.002-6.292c1.384-20.329,2.767-40.657,12.964-57.359c10.191-16.702,29.203-29.781,44.479-40.75
	c15.276-10.973,26.818-19.837,42.346-17.647c15.521,2.188,35.029,15.437,45.72,19.895c10.689,4.459,12.566,0.131,14.916-4.717
	c2.35-4.85,5.174-10.218,7.518-14.677c2.346-4.459,4.208-8.008-4.684-13.743c-8.895-5.734-28.55-13.657-42.522-18.901
	c-13.974-5.246-22.267-7.816-21.652-17.599c0.615-9.782,10.134-26.774,13.607-35.551c3.468-8.776,0.888-9.339-3.483-10.289
	c-4.371-0.953-10.533-2.293-15.324-3.387c-4.79-1.092-8.213-1.94-11.419,1.868c-3.202,3.807-6.187,12.27-11.389,25.9
	c-5.2,13.63-12.621,32.429-24.836,48.745c-12.214,16.315-29.229,30.15-46.057,38.214c-16.83,8.064-33.479,10.36-50.126,12.655
	c-16.647-2.295-33.062-4.043-49.89-12.107c-16.83-8.064-33.842-21.9-46.059-38.215c-12.215-16.315-19.636-35.115-24.837-48.744
	c-5.201-13.629-8.185-22.093-11.388-25.9c-3.204-3.809-6.627-2.961-11.418-1.868c-4.792,1.094-10.952,2.434-15.322,3.387
	c-4.371,0.95-6.953,1.511-3.482,10.289c3.47,8.776,12.991,25.768,13.606,35.55c0.614,9.782-7.679,12.353-21.653,17.599
	C408.5,79.17,388.846,87.092,379.95,92.827c-8.894,5.734-7.028,9.284-4.683,13.743c2.345,4.459,5.167,9.828,7.517,14.677
	s4.226,9.177,14.917,4.718c10.691-4.458,30.199-17.707,45.723-19.895c15.524-2.191,27.066,6.674,42.342,17.647
	c15.275,10.97,34.286,24.048,44.481,40.75c10.196,16.703,11.579,43.325,12.962,63.652l0,2.521c0,24.984,0,47.447-13.271,47.442
	c-13.271-0.006-39.813-25.002-56.113-39.146c-16.301-14.147-22.359-17.444-20.814-32.204c1.544-14.758,10.693-40.982,13.237-55.251
	c2.543-14.27-1.518-16.587-4.634-18.367c-3.115-1.78-5.285-3.023-6.895-3.882c-1.61-0.86-2.659-1.337-4.842-2.356
	c-2.182-1.019-5.498-2.579-9.32,8.668c-3.821,11.248-8.15,35.304-10.444,49.516c-2.295,14.211-2.558,18.579-8.427,18.602
	s-17.344-4.299-27.96-13.278c-10.615-8.979-20.368-22.62-28.245-38.357c-7.878-15.738-13.88-33.575-20.267-49.865
	c-6.386-16.291-13.156-31.037-17.271-38.251c-4.116-7.215-5.578-6.901-8.822-5.152c-3.243,1.749-8.269,4.935-11.964,7.264
	c-3.694,2.327-6.058,3.796-4.365,11.895c1.693,8.099,7.444,22.829,16.011,42.018c8.565,19.187,19.948,42.834,15.504,53.474
	c-4.442,10.638-24.709,8.266-45.348,7.607c-20.638-0.661-41.645,0.389-56.571-1.735c-14.927-2.123-23.772-7.416-28.934-9.062
	c-5.16-1.646-6.637,0.358-9.635,4.674c-2.999,4.317-7.518,10.944-11.128,16.445c-3.609,5.501-6.309,9.875,0.738,13.978
	c7.045,4.101,23.836,7.931,45.737,9.321c21.9,1.39,48.911,0.341,71.449,2.247c22.539,1.903,40.607,6.762,60.114,12.009
	c19.507,5.245,40.453,10.878,70.625,28.65c30.171,17.772,69.57,47.684,89.75,76.016c20.18,28.333,21.145,55.087,22.105,81.84
	l0.266,5.388c0,12.458-0.266,19.531-0.266,31.989l-0.843,12.295c-1.256,20.197-1.671,28.097-10.411,31.447
	c-8.74,3.348-24.961-10.154-38.886-22.411c-13.925-12.261-25.554-23.277-34.37-39.013c-8.815-15.739-14.818-36.198-25.321-57.445
	c-10.503-21.246-25.509-43.279-35.882-56.968c-10.373-13.688-16.114-19.034-20.206-22.841c-4.089-3.809-6.529-6.081-9.775-5.715
	c-3.247,0.364-7.297,3.365-10.203,5.514c-2.908,2.15-4.669,3.449-7.65,5.647c-2.982,2.2-7.184,5.297-1.313,12.202
	c5.872,6.904,21.817,17.616,37.479,38.97c15.662,21.355,31.043,53.357,28.416,65.16c-2.627,11.803-23.26,3.411-39.299-7.474
	c-16.038-10.885-27.479-24.264-40.062-33.685c-12.583-9.42-26.307-14.885-43.229-19.601c-16.922-4.713-28.449-8.172-39.879-10.249
	c-11.431-2.081-14.174-2.275-18.312-20.863c-4.137-18.588-9.672-55.575-13.496-74.219c-3.825-18.646-5.941-18.954-9.646-19.216
	c-3.705-0.262-17.592-0.984-21.189-0.929c-3.599,0.055-5.504,0.38-2.123,19.297c3.381,18.918,12.049,56.429,14.301,75.473
	c2.251,19.042-1.913,19.618-7.727,19.808c-5.815,0.188-13.28-0.014-25.891,0.533c-12.61,0.542-30.367,1.83-39.361,3.195
	c-8.993,1.365-9.224,2.805-9.616,5.261c-0.391,2.454-0.945,5.918-1.519,10.149c-0.573,4.229-1.167,9.223-1.567,12.593
	c-0.4,3.371-0.608,5.118,5.526,4.973c6.134-0.141,18.612-2.177,38.46-3.405s47.068-1.651,70.985,0.112
	c23.917,1.762,44.532,5.705,64.553,15.418c20.02,9.709,39.449,25.189,40.272,36.261c0.824,11.073-16.958,17.742-33.577,27.54
	c-16.619,9.798-32.075,22.72-47.684,30.481c-15.61,7.761-31.373,10.355-54.537,5.648c-23.164-4.708-53.729-16.716-68.926-21.431
	c-15.197-4.713-15.027-2.133-14.584,3.285c0.442,5.418,1.159,13.671,2.04,19.208c0.882,5.536,1.93,8.357,9.304,12.003
	c7.374,3.646,21.077,8.117,34.051,12.84c12.974,4.723,25.22,9.698,40.32,12.06c15.099,2.36,33.052,2.106,56.455-9.157
	c23.403-11.263,52.259-33.54,81.315-43.101c29.058-9.563,58.319-6.415,87.211,4.927c28.893,11.344,57.417,30.883,75.845,43.863
	c18.428,12.979,26.759,19.397,31.834,28.706c5.076,9.308,6.896,21.506,8.716,33.701v6.069c0,10.085,0,3.578,0,10.085v6.671
	c-0.889,17.441-1.778,34.885-13.896,33.577c-12.116-1.309-35.461-21.369-53.699-31.135c-26.505-14.196-68.832-36.564-95.515-48.848
	c-15.379-7.083-34.513-13.379-53.54-20.196c-19.028-6.82-37.952-14.163-47.612-15.31c-9.66-1.147-10.057,3.904-10.144,9.409
	c-0.086,5.506,0.138,11.467,0.231,16.286c0.094,4.818,0.059,8.495,13.218,12.543c13.159,4.048,39.512,8.469,59.207,14.239
	c19.695,5.77,32.73,12.892,25.744,22.485c-6.987,9.592-33.997,21.658-52.003,26.38c-18.007,4.721-27.01,2.098-40.141-3.41
	c-13.128-5.507-30.385-13.902-45.579-20.721c-15.191-6.82-28.322-12.066-43.63-18.859c-15.307-6.792-32.793-15.131-40.419-16.207
	c-7.626-1.078-5.393,5.108-3.149,10.885c2.243,5.774,4.496,11.145,6.068,14.891c1.572,3.747,2.465,5.875,25.471,14.498
	c23.005,8.62,68.125,23.74,83.556,38.118c15.432,14.38,1.177,28.02-9.953,38.209c-11.127,10.192-19.13,16.937-22.483,20.993
	c-3.353,4.058-2.057,5.428,0.432,8.058c2.487,2.63,6.166,6.52,8.98,10.167c2.813,3.648,4.76,7.056,13.026-0.781
	c8.266-7.837,22.85-26.923,41.583-42.758c18.733-15.835,41.617-28.428,63-35.509c21.382-7.082,41.265-8.655,48.55-5.021
	c7.287,3.634,1.979,12.476-7.183,23.498c-9.162,11.019-22.176,24.221-27.496,31.958c-5.32,7.738-2.949,10.013-0.231,13.137
	c2.717,3.123,5.78,7.096,8.298,10.417c2.518,3.324,4.493,5.993,8.265,3.14c3.771-2.85,9.34-11.227,16.496-22.234
	c7.154-11.005,15.896-24.638,25.551-37.804c9.655-13.166,17.83-17.655,31.171-16.97c12.994,0.668,66.776,34.796,77.458,48.474
	c7.907,10.125,10.364,37.747,10.364,37.747v8.857c-0.559,8.261-1.119,16.524-7.4,21.18c-6.281,4.655-18.286,5.705-39.013,4.526
	c-20.726-1.178-50.175-4.585-86.375-14.814c-36.201-10.23-79.153-27.283-101.022-34.298c-21.868-7.018-22.653-3.998-24.507,1.618
	c-1.856,5.618-4.781,13.836-7.154,20.455c-2.373,6.62-4.194,11.642,5.062,16.106c9.256,4.464,29.589,8.369,47.52,12.57
	c17.932,4.2,33.461,8.698,42.754,11.401c9.293,2.702,8.718,2.191,8.096,8.804c-0.621,6.612-5.61,23.53-6.274,28.281
	c-0.665,4.75,4.667,5.004,8.416,6.081c3.75,1.076,11.077,3.63,13.837,4.502c2.76,0.869,4.588,1.475,6.739-4.904
	c2.151-6.38,4.625-19.748,6.576-26.43c1.952-6.685,3.381-6.685,8.726-5.635c5.346,1.047,14.609,3.148,30.306,6.165
	c15.697,3.015,37.831,6.95,52.992,10.141c15.162,3.189,23.352,5.638,28.977,15.343c5.625,9.705,12.52,22.438,11.789,64.017
	l-0.042,8.547c-11.968,224.918-23.938,449.835-45.51,571.223c-21.572,121.381-52.748,139.237-98.775,149.177
	c-46.027,9.942-106.904,11.972-138.502,19.886c-31.597,7.91-33.916,21.708-36.232,35.503h113.362v23.48h104.482v-23.48h71.94h11.356
	h53.533h7.004l-0.264-849.363l14.832,0.402v848.961h3.286h49.822H664.899z"/>
<path fill="#3DB54A" d="M573.09,548.659l-0.982-0.623l2.192-390.551l-11.095-5.532l-89.083-62.002
	c-0.007-0.004-0.012-0.008-0.019-0.013c-0.002-0.001-0.005-0.003-0.007-0.004l-9.42-6.556l-0.553,0.795
	c-11.059-5.096-20.631-5.197-28.139-3.479l-0.269-0.487l-1.886,1.042c-9.951,2.868-15.729,8.689-15.729,8.689v0l-57.253,31.629
	l5.483,9.926l61.734-34.105c0.002-0.001,0.004-0.002,0.006-0.003c17.707-9.782,33.07-2.284,38.733,1.289l2.329,1.62v0.001h0.001
	l93.262,64.91l0.495-0.711l-0.878,158.542l-127.892-87.014c-13.544-12.029-35.737-20.185-59.866-25.219L311.711,48.474L301.13,52.55
	l60.048,155.849c-15.925-2.55-41.779-11.158-56.511-11.398c-41.546-0.677-73.301-9.326-73.333-9.333L164.397,170.5l-3.655,10.734
	l72.591,19.101l21.333,4.667c21.228,3.833,47.478,2.986,80,10c41.462,8.941,79.297,21.021,79.297,21.021l147.209,100.156
	l0.774-1.137l-1.14,205.817l-113.164-76.222l-27.365-94.488c-2.572-8.88-19.255-24.42-19.255-24.42l-60.946-72.013l-8.656,7.325
	l60.947,72.012c7.438,8.789,17.019,20.25,17.019,20.25l25.335,87.479c0,0-0.6-0.392-1.685-1.07l-10.247-6.508l-0.212,0.334
	c-6.13-3.424-13.877-7.415-21.555-10.453c0,0,0,0,0,0l-107.458-69.326c-0.177-0.131-0.351-0.246-0.518-0.334
	c0,0-15.691-8.989-29.975-11.216l-0.006-0.559l-6.223,0.063l-151.228,1.53l0.114,11.339l150.643-1.525
	c0.291,0.231,0.471,0.367,0.471,0.367s16.678,0.896,33.192,11.551c0.003,0.002,0.006,0.004,0.01,0.006l92.276,59.531
	c-17.065,4.436-34.332,15.008-34.332,15.008l-120.657,50.813c-0.16,0.054-11.232-0.06-11.333,0c0,0-6.512,3.475-30-6l-71.771-20.103
	l-4.244,10.516l75.348,21.587c0.033,0.019,20,11.333,44.838,6.396l119.946-51.778c0.001,0,0.002,0,0.003-0.001
	c18.869-8.146,37.23-9.966,50.388-14.706c9.84,2.739,17.524,7.369,23.287,11.029c0.001,0.001,0.003,0.002,0.005,0.004
	c0.001,0,0.003,0.002,0.005,0.002l136.879,86.934L559.479,686.1l-134.337-68.791c0,0-8.927-7.875-41.55,3.551l-0.005-0.014
	l-1.539,0.555c-0.004,0.002-0.009,0.004-0.013,0.005s-0.008,0.003-0.013,0.005l-64.422,23.25c0,0-13.069,4.459-25.742,2.81h0
	l-151.641-66.627l-3.231,9.152l145.388,65.877c0.015,0.007,0.898,0.428,2.464,0.994l2.951,1.19l0.086-0.213
	c7.139,2.05,20.264,4.119,33.576-2.518l65.987-22.839c0,0,19.951-7.164,32.538-5.086l139.391,71.379l-0.238,26.104l0.381,0.003
	l1.042,83.079l-281.03-70.538l-2.761,10.998l283.938,71.268l0.139,11.115L516,1684h11l44.656-843.416l0.643-0.008l-0.119-9.534
	l0.529-9.668l-0.651-0.036l-1.366-108.844l-0.113,0.001l0.188-20.593l0.01-0.018l-0.009-0.006l1.293-141.598L573.09,548.659z"/>
<path fill="#3DB54A" d="M897.627,381.975c16.514-10.654,33.192-11.551,33.192-11.551s0.181-0.136,0.472-0.367l150.643,1.525
	l0.113-11.339l-151.228-1.53l-6.224-0.063l-0.006,0.559c-14.283,2.227-29.975,11.216-29.975,11.216
	c-0.167,0.088-0.341,0.203-0.518,0.334l-107.459,65.326c-7.678,3.038-15.425,7.029-21.555,10.453l-0.212,0.666l-10.247,6.508
	c-1.084,0.679-1.685,0.07-1.685,0.07l-12.923,7.855l-113.163,76.222l-1.14-205.817l0.774,1.137l147.209-100.156
	c0,0,45.395-13.563,84.303-22.021c38.332-8.333,19.313-3.429,57.333-6.667l31.333-2.667l80.253-23.434l-3.655-10.734l-67.931,18.834
	c-0.031,0.007-30.454,7.323-72,8c-14.732,0.24-40.924,8.515-56.85,11.065l60.048-155.849l-10.581-4.076l-62.545,162.329
	c-24.129,5.035-46.322,13.19-59.866,25.219l-127.892,87.014l-0.878-158.542l0.495,0.711l93.262-64.91h0.001v-0.001l2.329-1.62
	c5.663-3.573,21.026-11.071,38.732-1.289c0.002,0.001,0.004,0.002,0.007,0.003l61.734,34.105l5.483-9.926l-57.254-31.629v0
	c0,0-5.777-5.822-15.729-8.689l-1.887-1.042l-0.269,0.487c-7.507-1.718-17.079-1.617-28.139,3.479l-0.553-0.795l-9.42,6.556
	c-0.002,0.001-0.005,0.003-0.007,0.004c-0.007,0.004-0.012,0.008-0.019,0.013l-89.083,62.002l-11.095,5.532l2.192,390.551
	l-0.982,0.623l1.03,1.623l1.293,141.598l-0.009,0.006l0.01,0.018l0.188,20.593l-0.113-0.001l-1.366,108.844l-0.651,0.036
	l0.529,9.668l-0.119,9.534l0.643,0.008l48.894,840.515L675,1684l-48.173-856.191l0.14-11.115l283.938-71.268l-2.762-10.998
	l-281.029,70.538l1.041-83.079l0.382-0.003l-0.238-26.104L767.688,624.4c12.587-2.078,32.538,5.086,32.538,5.086l65.986,22.839
	c13.313,6.637,26.438,4.567,33.576,2.518l0.086,0.213l2.951-1.19c1.564-0.566,2.448-0.987,2.463-0.994l147.616-59.567l-4.244-10.515
	L895.805,644.47c-12.674,1.649-25.742-2.81-25.742-2.81l-64.422-23.25c-0.005-0.002-0.009-0.004-0.014-0.005
	c-0.004-0.001-0.008-0.003-0.013-0.005l-1.539-0.555l-0.005,0.014c-11.978-4.195-20.751-5.783-27.071-6.12
	c9.22-10.225,42.131-30.088,141.001-56.752l8.001-13.322c0,0-135.001,29.334-194.413,88.481L628.183,683.1l-1.204-131.887
	l136.879-86.934c0.002,0,0.004-0.002,0.005-0.002c0.001-0.002,0.003-0.003,0.005-0.004c5.763-3.66,13.447-8.29,23.287-11.029
	c13.157,4.74,31.519,6.561,50.388,14.706c0.001,0.001,0.002,0.001,0.003,0.001l126.188,54.473
	c19.409,11.931,44.549-2.67,44.582-2.688l69.363-27.989l-4.244-10.516l-72.875,29.406c-23.488,9.475-32.333,1.376-32.333,1.376
	c-0.102-0.06-0.237-0.117-0.397-0.171L839.673,456.52c0,0-17.267-10.572-34.331-15.008l92.275-59.531
	C897.621,381.979,897.624,381.977,897.627,381.975z"/>
<path fill="#3DB54A" d="M1636.285,1153.62l0.982,0.623l-2.191,390.551l11.094,5.532l89.083,62.002
	c0.007,0.005,0.012,0.009,0.019,0.013c0.002,0.002,0.005,0.003,0.007,0.004l9.42,6.557l0.553-0.795
	c11.06,5.096,20.632,5.197,28.139,3.479l0.27,0.487l1.886-1.042c9.951-2.867,15.729-8.689,15.729-8.689l0,0l57.253-31.63
	l-5.483-9.926l-61.734,34.105c-0.002,0.001-0.004,0.003-0.006,0.003c-17.707,9.782-33.07,2.284-38.733-1.289l-2.329-1.619v-0.002
	h-0.001l-93.262-64.909l-0.494,0.712l0.877-158.543l127.892,87.014c13.544,12.029,35.737,20.186,59.866,25.22l62.545,162.329
	l10.581-4.076l-60.048-155.85c15.926,2.551,32.16,3.852,46.893,4.092c41.546,0.678,76.85,8.947,76.881,8.954l73.008,24.854
	l3.654-10.734l-87.042-29.633l-0.319,0.938c-21.228-3.834-57.157-5.04-90.324-7.658c-39.692-3.133-75.536-18.436-75.536-18.436
	l-147.208-100.156l-0.775,1.137l1.141-205.816l113.163,76.221l27.365,94.488c2.571,8.881,19.255,24.42,19.255,24.42l60.946,72.014
	l8.656-7.326l-60.947-72.012c-7.438-8.789-17.019-20.25-17.019-20.25l-25.335-87.479c0,0,0.601,0.393,1.686,1.07l10.246,6.508
	l0.213-0.334c6.129,3.424,13.877,7.416,21.555,10.453l0,0l107.458,69.326c0.177,0.131,0.351,0.246,0.518,0.334
	c0,0,15.691,8.99,29.976,11.217l0.006,0.559l6.223-0.064l151.229-1.529l-0.114-11.34l-150.643,1.525
	c-0.291-0.23-0.472-0.367-0.472-0.367s-16.678-0.896-33.191-11.551c-0.004-0.002-0.007-0.004-0.01-0.006l-92.276-59.531
	c17.065-4.436,34.331-15.008,34.331-15.008l128.156-55.322c0.16-0.053,0.296-0.111,0.397-0.17c0,0,8.845-8.1,32.333,1.375
	l72.875,29.406l4.244-10.516l-69.363-27.988c-0.033-0.02-25.174-14.619-44.582-2.689l-126.188,54.473c-0.002,0-0.002,0-0.004,0.002
	c-18.869,8.145-37.23,9.965-50.387,14.705c-9.84-2.738-17.525-7.369-23.287-11.029c-0.002,0-0.004-0.002-0.006-0.004
	c-0.001,0-0.003-0.002-0.004-0.002l-136.88-86.934l1.205-131.887l134.337,68.791c0,0,8.926,7.875,41.55-3.551l0.005,0.014
	l1.539-0.555c0.005-0.002,0.01-0.004,0.014-0.004c0.004-0.002,0.008-0.004,0.013-0.006l64.423-23.25c0,0,13.068-4.459,25.742-2.809
	l0,0l151.641,66.627l3.231-9.152l-145.388-65.877c-0.016-0.006-0.898-0.428-2.464-0.994l-2.95-1.189l-0.086,0.213
	c-7.14-2.051-20.264-4.119-33.576,2.518l-65.986,22.838c0,0-19.951,7.164-32.539,5.086l-139.39-71.379l0.238-26.104l-0.382-0.003
	l-1.042-83.079l281.03,70.538l2.762-10.998l-283.938-71.268l-0.139-11.115l46.391-846.622h-11.356l-45.856,836.848l-0.643,0.008
	l0.119,9.534l-0.529,9.668l0.652,0.036l1.365,108.844l0.113-0.002l-0.188,20.593l-0.01,0.018l0.01,0.006l-1.293,141.598
	L1636.285,1153.62z"/>
<path fill="#3DB54A" d="M1312.748,1319.305c-16.514,10.654-33.191,11.551-33.191,11.551s-0.182,0.136-0.473,0.367l-150.643-1.525
	l-0.113,11.339l151.229,1.53l6.223,0.063l0.006-0.559c14.283-2.227,29.975-11.216,29.975-11.216
	c0.168-0.088,0.342-0.203,0.518-0.334l107.459-65.326c7.678-3.038,15.426-7.029,21.555-10.453l0.213-0.666l10.246-6.508
	c1.084-0.679,1.686-0.07,1.686-0.07l12.922-7.855l113.164-76.222l1.139,205.817l-0.773-1.137l-147.209,100.156
	c0,0-35.844,15.302-75.537,18.435c-33.166,2.618-69.096,3.825-90.324,7.658l-0.318-0.937l-87.043,29.632l3.656,10.734l73.006-24.854
	c0.031-0.007,35.336-8.276,76.881-8.953c14.732-0.24,30.967-1.542,46.893-4.092l-60.047,155.849l10.58,4.076l62.545-162.328
	c24.129-5.035,46.322-13.19,59.867-25.22l127.891-87.014l0.879,158.542l-0.496-0.711l-93.262,64.909l0,0v0.001l-2.33,1.62
	c-5.662,3.573-21.025,11.071-38.732,1.289c-0.002-0.001-0.004-0.002-0.006-0.003l-61.734-34.105l-5.484,9.926l57.254,31.629l0,0
	c0,0,5.777,5.822,15.729,8.689l1.887,1.043l0.27-0.487c7.506,1.718,17.078,1.616,28.139-3.479l0.553,0.795l9.42-6.556
	c0.002-0.001,0.004-0.003,0.006-0.005c0.008-0.004,0.012-0.008,0.02-0.012l89.082-62.002l11.096-5.532l-2.193-390.551l0.982-0.623
	l-1.029-1.623l-1.293-141.598l0.008-0.006l-0.01-0.018l-0.188-20.593l0.113,0.001l1.367-108.844l0.65-0.035l-0.529-9.669
	l0.119-9.534l-0.643-0.008l-45.855-836.848h-11.355l46.391,846.623l-0.141,11.114l-283.938,71.269l2.762,10.998l281.029-70.538
	l-1.041,83.078l-0.381,0.004l0.238,26.104l-139.391,71.379c-12.588,2.078-32.539-5.086-32.539-5.086l-65.986-22.839
	c-13.313-6.637-26.438-4.567-33.576-2.518l-0.086-0.213l-2.951,1.19c-1.564,0.566-2.447,0.987-2.463,0.994l-147.615,59.567
	l4.244,10.515l152.855-61.681c12.674-1.649,25.742,2.81,25.742,2.81l64.422,23.25c0.006,0.002,0.01,0.004,0.014,0.005
	s0.008,0.003,0.014,0.005l1.539,0.555l0.004-0.014c11.979,4.194,20.752,5.783,27.072,6.12
	c-9.221,10.225-39.496,25.992-138.365,52.656l-0.088,13.793c0,0,124.451-25.71,183.863-84.857l103.406-52.952l1.203,131.887
	L1446.518,1237c-0.002,0-0.004,0.002-0.004,0.002c-0.002,0.002-0.004,0.003-0.006,0.004c-5.762,3.66-13.447,8.29-23.287,11.029
	c-13.156-4.74-31.518-6.561-50.387-14.706c-0.002-0.001-0.002-0.001-0.004-0.001l-126.188-54.473
	c-19.408-11.931-44.549,2.67-44.582,2.688l-69.363,27.989l4.244,10.516l72.875-29.406c23.488-9.475,32.334-1.376,32.334-1.376
	c0.102,0.06,0.236,0.117,0.396,0.171l128.156,55.322c0,0,17.266,10.572,34.33,15.008l-92.275,59.531
	C1312.754,1319.301,1312.752,1319.303,1312.748,1319.305z"/>
</svg>
